<svg width="42" height="42" viewBox="0 0 42 42" fill="none" xmlns="http://www.w3.org/2000/svg">
<rect x="0.5" y="0.5" width="41" height="41" rx="3.5" fill="white" stroke="#0F0F10"/>
<path fill-rule="evenodd" clip-rule="evenodd" d="M26.8474 14.777C23.0976 14.5077 18.9209 14.5077 15.1711 14.777C14.3862 14.8334 13.7915 15.4345 13.7324 16.1692C13.5432 18.5253 13.518 22.0553 13.6915 24.4091C13.7489 25.1865 14.4314 25.8539 15.3548 25.8539H18.2496V29.425L15.3607 29.4229C12.7106 29.4229 10.3319 27.4586 10.1264 24.672C9.93933 22.1351 9.96517 18.4215 10.1691 15.8829C10.3735 13.3387 12.4192 11.3905 14.915 11.2112C18.8353 10.9296 23.1832 10.9296 27.1035 11.2112C29.5993 11.3905 31.645 13.3387 31.8494 15.8829C32.0533 18.4215 32.0444 22.1351 31.8574 24.672C31.6519 27.4586 29.2786 29.4309 26.6285 29.4309L23.7695 29.4289L18.2496 33L18.2496 29.425L23.7695 25.8539H26.6289C27.5523 25.8539 28.2349 25.1865 28.2922 24.4091C28.4658 22.0553 28.4753 18.5253 28.2861 16.1692C28.227 15.4345 27.6323 14.8334 26.8474 14.777Z" fill="#FE5000"/>
</svg>
