<svg width="198" height="42" viewBox="0 0 198 42" fill="none" xmlns="http://www.w3.org/2000/svg">
<rect x="0.5" y="0.5" width="197" height="41" rx="3.5" fill="white" stroke="#0F0F10"/>
<path d="M50.08 26.18C49.39 26.18 48.75 26.05 48.16 25.79C47.57 25.53 47.06 25.175 46.63 24.725L47.38 23.855C47.73 24.225 48.14 24.525 48.61 24.755C49.09 24.975 49.585 25.085 50.095 25.085C50.745 25.085 51.25 24.94 51.61 24.65C51.97 24.35 52.15 23.96 52.15 23.48C52.15 23.23 52.105 23.02 52.015 22.85C51.935 22.67 51.82 22.52 51.67 22.4C51.53 22.27 51.36 22.155 51.16 22.055C50.96 21.955 50.745 21.85 50.515 21.74L49.105 21.125C48.875 21.025 48.64 20.905 48.4 20.765C48.16 20.625 47.945 20.455 47.755 20.255C47.565 20.055 47.41 19.82 47.29 19.55C47.17 19.27 47.11 18.95 47.11 18.59C47.11 18.22 47.185 17.875 47.335 17.555C47.495 17.235 47.71 16.96 47.98 16.73C48.26 16.49 48.585 16.305 48.955 16.175C49.335 16.045 49.75 15.98 50.2 15.98C50.79 15.98 51.335 16.095 51.835 16.325C52.335 16.545 52.76 16.835 53.11 17.195L52.435 18.005C52.135 17.715 51.8 17.49 51.43 17.33C51.07 17.16 50.66 17.075 50.2 17.075C49.65 17.075 49.205 17.205 48.865 17.465C48.535 17.715 48.37 18.065 48.37 18.515C48.37 18.755 48.415 18.96 48.505 19.13C48.605 19.29 48.735 19.435 48.895 19.565C49.055 19.685 49.23 19.795 49.42 19.895C49.61 19.985 49.805 20.07 50.005 20.15L51.4 20.75C51.68 20.87 51.945 21.01 52.195 21.17C52.445 21.32 52.66 21.5 52.84 21.71C53.02 21.91 53.16 22.15 53.26 22.43C53.37 22.7 53.425 23.015 53.425 23.375C53.425 23.765 53.345 24.13 53.185 24.47C53.035 24.81 52.815 25.11 52.525 25.37C52.235 25.62 51.885 25.82 51.475 25.97C51.065 26.11 50.6 26.18 50.08 26.18ZM55.2427 26V18.71H56.4727V26H55.2427ZM55.8727 17.21C55.6327 17.21 55.4277 17.135 55.2577 16.985C55.0977 16.835 55.0177 16.645 55.0177 16.415C55.0177 16.175 55.0977 15.985 55.2577 15.845C55.4277 15.695 55.6327 15.62 55.8727 15.62C56.1127 15.62 56.3127 15.695 56.4727 15.845C56.6427 15.985 56.7277 16.175 56.7277 16.415C56.7277 16.645 56.6427 16.835 56.4727 16.985C56.3127 17.135 56.1127 17.21 55.8727 17.21ZM61.3941 29.36C60.9441 29.36 60.5341 29.315 60.1641 29.225C59.7941 29.145 59.4741 29.02 59.2041 28.85C58.9441 28.68 58.7391 28.475 58.5891 28.235C58.4491 27.995 58.3791 27.715 58.3791 27.395C58.3791 27.085 58.4741 26.79 58.6641 26.51C58.8541 26.23 59.1141 25.975 59.4441 25.745V25.685C59.2641 25.575 59.1091 25.425 58.9791 25.235C58.8591 25.035 58.7991 24.79 58.7991 24.5C58.7991 24.19 58.8841 23.92 59.0541 23.69C59.2241 23.46 59.4041 23.28 59.5941 23.15V23.09C59.3541 22.89 59.1341 22.625 58.9341 22.295C58.7441 21.955 58.6491 21.565 58.6491 21.125C58.6491 20.725 58.7191 20.365 58.8591 20.045C59.0091 19.725 59.2091 19.455 59.4591 19.235C59.7091 19.005 59.9991 18.83 60.3291 18.71C60.6691 18.59 61.0241 18.53 61.3941 18.53C61.5941 18.53 61.7791 18.55 61.9491 18.59C62.1291 18.62 62.2891 18.66 62.4291 18.71H64.9641V19.655H63.4641C63.6341 19.825 63.7741 20.04 63.8841 20.3C64.0041 20.56 64.0641 20.845 64.0641 21.155C64.0641 21.545 63.9941 21.9 63.8541 22.22C63.7141 22.53 63.5241 22.795 63.2841 23.015C63.0441 23.225 62.7591 23.39 62.4291 23.51C62.1091 23.63 61.7641 23.69 61.3941 23.69C61.2141 23.69 61.0291 23.67 60.8391 23.63C60.6491 23.58 60.4691 23.515 60.2991 23.435C60.1691 23.545 60.0591 23.67 59.9691 23.81C59.8791 23.94 59.8341 24.105 59.8341 24.305C59.8341 24.535 59.9241 24.725 60.1041 24.875C60.2841 25.025 60.6241 25.1 61.1241 25.1H62.5341C63.3841 25.1 64.0191 25.24 64.4391 25.52C64.8691 25.79 65.0841 26.23 65.0841 26.84C65.0841 27.18 64.9991 27.5 64.8291 27.8C64.6591 28.11 64.4141 28.38 64.0941 28.61C63.7741 28.84 63.3841 29.02 62.9241 29.15C62.4741 29.29 61.9641 29.36 61.3941 29.36ZM61.3941 22.865C61.6041 22.865 61.7991 22.825 61.9791 22.745C62.1691 22.665 62.3341 22.55 62.4741 22.4C62.6241 22.25 62.7391 22.07 62.8191 21.86C62.8991 21.64 62.9391 21.395 62.9391 21.125C62.9391 20.585 62.7891 20.17 62.4891 19.88C62.1891 19.58 61.8241 19.43 61.3941 19.43C60.9641 19.43 60.5991 19.58 60.2991 19.88C59.9991 20.17 59.8491 20.585 59.8491 21.125C59.8491 21.395 59.8891 21.64 59.9691 21.86C60.0491 22.07 60.1591 22.25 60.2991 22.4C60.4491 22.55 60.6141 22.665 60.7941 22.745C60.9841 22.825 61.1841 22.865 61.3941 22.865ZM61.5741 28.505C61.9241 28.505 62.2391 28.46 62.5191 28.37C62.8091 28.29 63.0541 28.18 63.2541 28.04C63.4541 27.91 63.6091 27.755 63.7191 27.575C63.8291 27.395 63.8841 27.21 63.8841 27.02C63.8841 26.68 63.7591 26.445 63.5091 26.315C63.2591 26.185 62.8941 26.12 62.4141 26.12H61.1541C61.0141 26.12 60.8591 26.11 60.6891 26.09C60.5291 26.08 60.3691 26.05 60.2091 26C59.9491 26.19 59.7591 26.39 59.6391 26.6C59.5191 26.81 59.4591 27.02 59.4591 27.23C59.4591 27.62 59.6441 27.93 60.0141 28.16C60.3941 28.39 60.9141 28.505 61.5741 28.505ZM66.4927 26V18.71H67.5127L67.6177 19.76H67.6627C68.0127 19.41 68.3777 19.12 68.7577 18.89C69.1477 18.65 69.5977 18.53 70.1077 18.53C70.8777 18.53 71.4377 18.77 71.7877 19.25C72.1477 19.73 72.3277 20.44 72.3277 21.38V26H71.0977V21.545C71.0977 20.855 70.9877 20.36 70.7677 20.06C70.5477 19.75 70.1977 19.595 69.7177 19.595C69.3377 19.595 69.0027 19.69 68.7127 19.88C68.4227 20.07 68.0927 20.35 67.7227 20.72V26H66.4927ZM77.6988 26V18.71H78.9288V26H77.6988ZM78.3288 17.21C78.0888 17.21 77.8838 17.135 77.7138 16.985C77.5538 16.835 77.4738 16.645 77.4738 16.415C77.4738 16.175 77.5538 15.985 77.7138 15.845C77.8838 15.695 78.0888 15.62 78.3288 15.62C78.5688 15.62 78.7688 15.695 78.9288 15.845C79.0988 15.985 79.1838 16.175 79.1838 16.415C79.1838 16.645 79.0988 16.835 78.9288 16.985C78.7688 17.135 78.5688 17.21 78.3288 17.21ZM81.3902 26V18.71H82.4102L82.5152 19.76H82.5602C82.9102 19.41 83.2752 19.12 83.6552 18.89C84.0452 18.65 84.4952 18.53 85.0052 18.53C85.7752 18.53 86.3352 18.77 86.6852 19.25C87.0452 19.73 87.2252 20.44 87.2252 21.38V26H85.9952V21.545C85.9952 20.855 85.8852 20.36 85.6652 20.06C85.4452 19.75 85.0952 19.595 84.6152 19.595C84.2352 19.595 83.9002 19.69 83.6102 19.88C83.3202 20.07 82.9902 20.35 82.6202 20.72V26H81.3902ZM93.7512 26L91.7262 18.71H92.9862L94.0662 22.925C94.1462 23.275 94.2212 23.615 94.2912 23.945C94.3612 24.275 94.4312 24.61 94.5012 24.95H94.5612C94.6412 24.61 94.7212 24.275 94.8012 23.945C94.8812 23.605 94.9662 23.265 95.0562 22.925L96.1812 18.71H97.3812L98.5212 22.925C98.6112 23.275 98.6962 23.615 98.7762 23.945C98.8662 24.275 98.9512 24.61 99.0312 24.95H99.0912C99.1712 24.61 99.2462 24.275 99.3162 23.945C99.3862 23.615 99.4612 23.275 99.5412 22.925L100.606 18.71H101.776L99.8262 26H98.3262L97.2762 22.085C97.1862 21.735 97.1012 21.39 97.0212 21.05C96.9512 20.71 96.8712 20.355 96.7812 19.985H96.7212C96.6412 20.355 96.5612 20.715 96.4812 21.065C96.4012 21.405 96.3112 21.75 96.2112 22.1L95.1912 26H93.7512ZM103.363 26V18.71H104.593V26H103.363ZM103.993 17.21C103.753 17.21 103.548 17.135 103.378 16.985C103.218 16.835 103.138 16.645 103.138 16.415C103.138 16.175 103.218 15.985 103.378 15.845C103.548 15.695 103.753 15.62 103.993 15.62C104.233 15.62 104.433 15.695 104.593 15.845C104.763 15.985 104.848 16.175 104.848 16.415C104.848 16.645 104.763 16.835 104.593 16.985C104.433 17.135 104.233 17.21 103.993 17.21ZM109.349 26.18C108.959 26.18 108.629 26.12 108.359 26C108.099 25.88 107.884 25.715 107.714 25.505C107.554 25.295 107.439 25.04 107.369 24.74C107.299 24.44 107.264 24.11 107.264 23.75V19.715H106.184V18.785L107.324 18.71L107.474 16.67H108.509V18.71H110.474V19.715H108.509V23.765C108.509 24.215 108.589 24.565 108.749 24.815C108.919 25.055 109.214 25.175 109.634 25.175C109.764 25.175 109.904 25.155 110.054 25.115C110.204 25.075 110.339 25.03 110.459 24.98L110.699 25.91C110.499 25.98 110.279 26.04 110.039 26.09C109.809 26.15 109.579 26.18 109.349 26.18ZM112.123 26V15.32H113.353V18.23L113.308 19.73C113.658 19.4 114.023 19.12 114.403 18.89C114.783 18.65 115.228 18.53 115.738 18.53C116.508 18.53 117.068 18.77 117.418 19.25C117.778 19.73 117.958 20.44 117.958 21.38V26H116.728V21.545C116.728 20.855 116.618 20.36 116.398 20.06C116.178 19.75 115.828 19.595 115.348 19.595C114.968 19.595 114.633 19.69 114.343 19.88C114.053 20.07 113.723 20.35 113.353 20.72V26H112.123ZM123.3 26V16.19H125.04V24.53H129.12V26H123.3ZM130.679 26V18.635H132.404V26H130.679ZM131.549 17.345C131.239 17.345 130.984 17.255 130.784 17.075C130.584 16.895 130.484 16.66 130.484 16.37C130.484 16.08 130.584 15.845 130.784 15.665C130.984 15.475 131.239 15.38 131.549 15.38C131.859 15.38 132.114 15.475 132.314 15.665C132.514 15.845 132.614 16.08 132.614 16.37C132.614 16.66 132.514 16.895 132.314 17.075C132.114 17.255 131.859 17.345 131.549 17.345ZM136.255 26L133.69 18.635H135.445L136.615 22.46C136.715 22.82 136.815 23.185 136.915 23.555C137.025 23.925 137.13 24.3 137.23 24.68H137.29C137.4 24.3 137.505 23.925 137.605 23.555C137.705 23.185 137.81 22.82 137.92 22.46L139.09 18.635H140.755L138.25 26H136.255ZM145.094 26.18C144.584 26.18 144.109 26.095 143.669 25.925C143.229 25.745 142.844 25.49 142.514 25.16C142.184 24.83 141.924 24.43 141.734 23.96C141.554 23.48 141.464 22.935 141.464 22.325C141.464 21.725 141.559 21.185 141.749 20.705C141.939 20.225 142.189 19.82 142.499 19.49C142.819 19.16 143.184 18.905 143.594 18.725C144.004 18.545 144.424 18.455 144.854 18.455C145.354 18.455 145.794 18.54 146.174 18.71C146.554 18.88 146.869 19.12 147.119 19.43C147.379 19.74 147.574 20.11 147.704 20.54C147.834 20.97 147.899 21.44 147.899 21.95C147.899 22.12 147.889 22.28 147.869 22.43C147.859 22.58 147.844 22.7 147.824 22.79H143.144C143.224 23.45 143.454 23.96 143.834 24.32C144.224 24.67 144.719 24.845 145.319 24.845C145.639 24.845 145.934 24.8 146.204 24.71C146.484 24.61 146.759 24.475 147.029 24.305L147.614 25.385C147.264 25.615 146.874 25.805 146.444 25.955C146.014 26.105 145.564 26.18 145.094 26.18ZM143.129 21.62H146.399C146.399 21.05 146.274 20.605 146.024 20.285C145.784 19.955 145.409 19.79 144.899 19.79C144.459 19.79 144.074 19.945 143.744 20.255C143.414 20.565 143.209 21.02 143.129 21.62ZM153.611 26.18C152.991 26.18 152.411 26.07 151.871 25.85C151.331 25.63 150.861 25.305 150.461 24.875C150.071 24.445 149.761 23.915 149.531 23.285C149.301 22.655 149.186 21.935 149.186 21.125C149.186 20.325 149.301 19.61 149.531 18.98C149.771 18.34 150.091 17.8 150.491 17.36C150.901 16.92 151.376 16.585 151.916 16.355C152.466 16.125 153.051 16.01 153.671 16.01C154.291 16.01 154.841 16.135 155.321 16.385C155.801 16.635 156.196 16.925 156.506 17.255L155.576 18.38C155.316 18.12 155.036 17.915 154.736 17.765C154.436 17.605 154.096 17.525 153.716 17.525C153.316 17.525 152.946 17.61 152.606 17.78C152.276 17.94 151.986 18.175 151.736 18.485C151.496 18.785 151.306 19.155 151.166 19.595C151.036 20.035 150.971 20.53 150.971 21.08C150.971 22.2 151.211 23.08 151.691 23.72C152.181 24.35 152.841 24.665 153.671 24.665C154.111 24.665 154.501 24.575 154.841 24.395C155.181 24.205 155.491 23.96 155.771 23.66L156.701 24.755C156.301 25.215 155.841 25.57 155.321 25.82C154.811 26.06 154.241 26.18 153.611 26.18ZM158.189 26V15.41H159.914V18.14L159.854 19.565C160.164 19.275 160.504 19.02 160.874 18.8C161.254 18.57 161.699 18.455 162.209 18.455C162.999 18.455 163.574 18.71 163.934 19.22C164.294 19.72 164.474 20.44 164.474 21.38V26H162.749V21.605C162.749 20.995 162.659 20.565 162.479 20.315C162.299 20.065 162.004 19.94 161.594 19.94C161.274 19.94 160.989 20.02 160.739 20.18C160.499 20.33 160.224 20.555 159.914 20.855V26H158.189ZM168.338 26.18C167.688 26.18 167.163 25.985 166.763 25.595C166.363 25.195 166.163 24.67 166.163 24.02C166.163 23.63 166.243 23.285 166.403 22.985C166.573 22.675 166.833 22.41 167.183 22.19C167.543 21.97 167.993 21.785 168.533 21.635C169.083 21.485 169.738 21.37 170.498 21.29C170.488 21.1 170.458 20.92 170.408 20.75C170.368 20.57 170.293 20.415 170.183 20.285C170.083 20.145 169.948 20.04 169.778 19.97C169.608 19.89 169.398 19.85 169.148 19.85C168.788 19.85 168.433 19.92 168.083 20.06C167.743 20.2 167.408 20.37 167.078 20.57L166.448 19.415C166.858 19.155 167.318 18.93 167.828 18.74C168.338 18.55 168.888 18.455 169.478 18.455C170.398 18.455 171.083 18.73 171.533 19.28C171.993 19.82 172.223 20.605 172.223 21.635V26H170.798L170.678 25.19H170.618C170.288 25.47 169.933 25.705 169.553 25.895C169.183 26.085 168.778 26.18 168.338 26.18ZM168.893 24.83C169.193 24.83 169.463 24.76 169.703 24.62C169.953 24.48 170.218 24.28 170.498 24.02V22.37C169.998 22.43 169.578 22.51 169.238 22.61C168.898 22.71 168.623 22.825 168.413 22.955C168.203 23.075 168.053 23.215 167.963 23.375C167.873 23.535 167.828 23.705 167.828 23.885C167.828 24.215 167.928 24.455 168.128 24.605C168.328 24.755 168.583 24.83 168.893 24.83ZM176.648 26.18C176.218 26.18 175.853 26.115 175.553 25.985C175.263 25.855 175.023 25.675 174.833 25.445C174.653 25.205 174.518 24.925 174.428 24.605C174.348 24.275 174.308 23.91 174.308 23.51V20H173.258V18.71L174.398 18.635L174.608 16.625H176.048V18.635H177.923V20H176.048V23.51C176.048 24.37 176.393 24.8 177.083 24.8C177.213 24.8 177.343 24.785 177.473 24.755C177.613 24.725 177.738 24.685 177.848 24.635L178.148 25.91C177.948 25.98 177.718 26.04 177.458 26.09C177.208 26.15 176.938 26.18 176.648 26.18Z" fill="#0F0F10"/>
<path fill-rule="evenodd" clip-rule="evenodd" d="M28.8474 14.777C25.0976 14.5077 20.9209 14.5077 17.1711 14.777C16.3862 14.8334 15.7915 15.4345 15.7324 16.1692C15.5432 18.5253 15.518 22.0553 15.6915 24.4091C15.7489 25.1865 16.4314 25.8539 17.3548 25.8539H20.2496V29.425L17.3607 29.4229C14.7106 29.4229 12.3319 27.4586 12.1264 24.672C11.9393 22.1351 11.9652 18.4215 12.1691 15.8829C12.3735 13.3387 14.4192 11.3905 16.915 11.2112C20.8353 10.9296 25.1832 10.9296 29.1035 11.2112C31.5993 11.3905 33.645 13.3387 33.8494 15.8829C34.0533 18.4215 34.0444 22.1351 33.8574 24.672C33.6519 27.4586 31.2786 29.4309 28.6285 29.4309L25.7695 29.4289L20.2496 33L20.2496 29.425L25.7695 25.8539H28.6289C29.5523 25.8539 30.2349 25.1865 30.2922 24.4091C30.4658 22.0553 30.4753 18.5253 30.2861 16.1692C30.227 15.4345 29.6323 14.8334 28.8474 14.777Z" fill="#FE5000"/>
</svg>